<svg width="644" height="32" viewBox="0 0 644 32" fill="none" xmlns="http://www.w3.org/2000/svg">
<g clip-path="url(#clip0_107_7)">
<mask id="mask0_107_7" style="mask-type:luminance" maskUnits="userSpaceOnUse" x="0" y="0" width="644" height="32">
<path d="M644 0H0V31.1111H644V0Z" fill="white"/>
</mask>
<g mask="url(#mask0_107_7)">
<path d="M0 12.4445C0 8.08848 0 5.9105 0.847727 4.24674C1.59341 2.78326 2.78326 1.59341 4.24674 0.847727C5.9105 0 8.08848 0 12.4444 0H631.555C635.911 0 638.089 0 639.753 0.847727C641.217 1.59341 642.407 2.78326 643.152 4.24674C644 5.9105 644 8.08848 644 12.4444V31.1111H0V12.4445Z" fill="#25334D"/>
<mask id="mask1_107_7" style="mask-type:luminance" maskUnits="userSpaceOnUse" x="556" y="5" width="76" height="20">
<path d="M631.556 5.44446H556.889V24.1112H631.556V5.44446Z" fill="white"/>
</mask>
<g mask="url(#mask1_107_7)">
<path d="M566.229 16.6239C566.557 16.6239 566.828 16.353 566.828 16.0305V9.54144L566.783 8.58679L567.176 9.05767L568.079 10.0188C568.182 10.1349 568.33 10.1929 568.478 10.1929C568.775 10.1929 569.02 9.98007 569.02 9.6769C569.02 9.51564 568.955 9.39953 568.846 9.28988L566.686 7.20641C566.532 7.0516 566.383 7 566.229 7C566.067 7 565.926 7.0516 565.771 7.20641L563.605 9.28988C563.496 9.39953 563.431 9.51564 563.431 9.6769C563.431 9.98007 563.67 10.1929 563.966 10.1929C564.114 10.1929 564.269 10.1349 564.372 10.0188L565.275 9.05767L565.674 8.58034L565.623 9.54144V16.0305C565.623 16.353 565.893 16.6239 566.229 16.6239ZM562.509 21.7778H569.935C571.334 21.7778 572.056 21.0553 572.056 19.675V13.3343C572.056 11.9539 571.334 11.2314 569.935 11.2314H568.195V12.5151H569.851C570.438 12.5151 570.773 12.8247 570.773 13.4439V19.5589C570.773 20.1781 570.438 20.4877 569.851 20.4877H562.593C562 20.4877 561.672 20.1781 561.672 19.5589V13.4439C561.672 12.8247 562 12.5151 562.593 12.5151H564.269V11.2314H562.509C561.117 11.2314 560.389 11.9474 560.389 13.3343V19.675C560.389 21.0553 561.117 21.7778 562.509 21.7778Z" fill="#B7B7B7"/>
<path d="M593.444 20.2223C593.854 20.2223 594.186 19.8896 594.186 19.5121V15.5072H598.154C598.551 15.5072 598.889 15.1809 598.889 14.7778C598.889 14.3812 598.551 14.0485 598.154 14.0485H594.186V10.0435C594.186 9.65966 593.854 9.33337 593.444 9.33337C593.041 9.33337 592.703 9.65966 592.703 10.0435V14.0485H588.735C588.351 14.0485 588 14.3812 588 14.7778C588 15.1809 588.351 15.5072 588.735 15.5072H592.703V19.5121C592.703 19.8896 593.041 20.2223 593.444 20.2223Z" fill="#B7B7B7"/>
<path d="M617.344 18.6938H618.44V19.6675C618.44 21.0475 619.169 21.7698 620.562 21.7698H627.101C628.493 21.7698 629.222 21.0475 629.222 19.6675V13.0834C629.222 11.7034 628.493 10.9812 627.101 10.9812H626.004V10.0139C626.004 8.63387 625.276 7.91162 623.883 7.91162H617.344C615.944 7.91162 615.222 8.63387 615.222 10.0139V16.5915C615.222 17.978 615.944 18.6938 617.344 18.6938ZM617.428 17.4105C616.834 17.4105 616.505 17.1009 616.505 16.4754V10.13C616.505 9.50444 616.834 9.20135 617.428 9.20135H623.799C624.386 9.20135 624.721 9.50444 624.721 10.13V10.9812H620.562C619.169 10.9812 618.44 11.7034 618.44 13.0834V17.4105H617.428ZM620.645 20.48C620.052 20.48 619.73 20.1705 619.73 19.5514V13.1995C619.73 12.5804 620.052 12.2709 620.645 12.2709H627.017C627.61 12.2709 627.939 12.5804 627.939 13.1995V19.5514C627.939 20.1705 627.61 20.48 627.017 20.48H620.645Z" fill="#B7B7B7"/>
</g>
<mask id="mask2_107_7" style="mask-type:luminance" maskUnits="userSpaceOnUse" x="74" y="5" width="77" height="20">
<path d="M150.889 5.44446H74.6666V24.1112H150.889V5.44446Z" fill="white"/>
</mask>
<g mask="url(#mask2_107_7)">
<path d="M78.3463 21.3999H89.3928C90.7937 21.3999 91.5233 20.6769 91.5233 19.2952V11.4381C91.5233 10.0565 90.7937 9.33337 89.3928 9.33337H78.3463C76.9517 9.33337 76.2222 10.05 76.2222 11.4381V19.2952C76.2222 20.6769 76.9517 21.3999 78.3463 21.3999ZM78.4302 20.1152C77.8362 20.1152 77.507 19.8053 77.507 19.179V11.5543C77.507 10.928 77.8362 10.6182 78.4302 10.6182H81.3742V20.1152H78.4302ZM89.3088 10.6182C89.9028 10.6182 90.2321 10.928 90.2321 11.5543V19.179C90.2321 19.8053 89.9028 20.1152 89.3088 20.1152H82.5944V10.6182H89.3088ZM80.1088 12.9811C80.3412 12.9811 80.5349 12.781 80.5349 12.5615C80.5349 12.3419 80.3412 12.1483 80.1088 12.1483H78.7853C78.5529 12.1483 78.3592 12.3419 78.3592 12.5615C78.3592 12.781 78.5529 12.9811 78.7853 12.9811H80.1088ZM80.1088 14.7178C80.3412 14.7178 80.5349 14.5241 80.5349 14.2982C80.5349 14.0787 80.3412 13.885 80.1088 13.885H78.7853C78.5529 13.885 78.3592 14.0787 78.3592 14.2982C78.3592 14.5241 78.5529 14.7178 78.7853 14.7178H80.1088ZM80.1088 16.4481C80.3412 16.4481 80.5349 16.2608 80.5349 16.0349C80.5349 15.8154 80.3412 15.6281 80.1088 15.6281H78.7853C78.5529 15.6281 78.3592 15.8154 78.3592 16.0349C78.3592 16.2608 78.5529 16.4481 78.7853 16.4481H80.1088Z" fill="#B7B7B7"/>
<path d="M116.199 20.2952L111.471 15.6711C111.307 15.507 111.222 15.3247 111.222 15.112C111.222 14.8994 111.307 14.7049 111.477 14.5469L116.205 9.92889C116.339 9.79521 116.509 9.72229 116.703 9.72229C117.11 9.72229 117.426 10.0383 117.426 10.4393C117.426 10.6337 117.347 10.8221 117.207 10.9619L112.954 15.106L117.207 19.2622C117.347 19.402 117.426 19.5843 117.426 19.7848C117.426 20.1858 117.11 20.5018 116.703 20.5018C116.509 20.5018 116.339 20.4289 116.199 20.2952Z" fill="#B7B7B7"/>
<path d="M139.556 20.5018C139.757 20.5018 139.921 20.4289 140.061 20.2952L144.788 15.6772C144.952 15.507 145.037 15.3308 145.037 15.112C145.037 14.8994 144.958 14.711 144.788 14.553L140.061 9.92889C139.921 9.79521 139.757 9.72229 139.556 9.72229C139.149 9.72229 138.833 10.0383 138.833 10.4393C138.833 10.6337 138.918 10.8221 139.052 10.9619L143.312 15.1181L139.052 19.2622C138.912 19.4081 138.833 19.5843 138.833 19.7848C138.833 20.1858 139.149 20.5018 139.556 20.5018Z" fill="#5A5A5A"/>
</g>
<mask id="mask3_107_7" style="mask-type:luminance" maskUnits="userSpaceOnUse" x="15" y="10" width="41" height="11">
<path d="M55.9999 10.8889H15.5555V20.2222H55.9999V10.8889Z" fill="white"/>
</mask>
<g mask="url(#mask3_107_7)">
<path d="M20.2222 20.2223C22.7995 20.2223 24.8889 18.1329 24.8889 15.5556C24.8889 12.9783 22.7995 10.8889 20.2222 10.8889C17.6449 10.8889 15.5555 12.9783 15.5555 15.5556C15.5555 18.1329 17.6449 20.2223 20.2222 20.2223Z" fill="#ED6A5E"/>
<path d="M20.2222 19.8334C22.5848 19.8334 24.5 17.9182 24.5 15.5556C24.5 13.1931 22.5848 11.2778 20.2222 11.2778C17.8597 11.2778 15.9445 13.1931 15.9445 15.5556C15.9445 17.9182 17.8597 19.8334 20.2222 19.8334Z" stroke="black" stroke-opacity="0.1" stroke-width="0.777778"/>
<path d="M35.7778 20.2223C38.3551 20.2223 40.4444 18.1329 40.4444 15.5556C40.4444 12.9783 38.3551 10.8889 35.7778 10.8889C33.2004 10.8889 31.1111 12.9783 31.1111 15.5556C31.1111 18.1329 33.2004 20.2223 35.7778 20.2223Z" fill="#F4BD50"/>
<path d="M35.7778 19.8334C38.1403 19.8334 40.0556 17.9182 40.0556 15.5556C40.0556 13.1931 38.1403 11.2778 35.7778 11.2778C33.4152 11.2778 31.5 13.1931 31.5 15.5556C31.5 17.9182 33.4152 19.8334 35.7778 19.8334Z" stroke="black" stroke-opacity="0.1" stroke-width="0.777778"/>
<path d="M51.3333 20.2223C53.9106 20.2223 56 18.1329 56 15.5556C56 12.9783 53.9106 10.8889 51.3333 10.8889C48.756 10.8889 46.6666 12.9783 46.6666 15.5556C46.6666 18.1329 48.756 20.2223 51.3333 20.2223Z" fill="#61C454"/>
<path d="M51.3333 19.8334C53.6959 19.8334 55.6111 17.9182 55.6111 15.5556C55.6111 13.1931 53.6959 11.2778 51.3333 11.2778C48.9708 11.2778 47.0555 13.1931 47.0555 15.5556C47.0555 17.9182 48.9708 19.8334 51.3333 19.8334Z" stroke="black" stroke-opacity="0.1" stroke-width="0.777778"/>
</g>
<path d="M220.889 21.7778C221.005 21.7778 221.178 21.7388 221.339 21.6478C225.046 19.6141 226.333 18.672 226.333 16.3069V11.4014C226.333 10.6217 226.031 10.3423 225.387 10.0629C224.673 9.75756 222.272 8.9129 221.571 8.6725C221.359 8.60102 221.108 8.55554 220.889 8.55554C220.67 8.55554 220.419 8.61402 220.207 8.6725C219.505 8.87391 217.105 9.76406 216.39 10.0629C215.747 10.3358 215.444 10.6217 215.444 11.4014V16.3069C215.444 18.672 216.738 19.6011 220.432 21.6478C220.599 21.7388 220.773 21.7778 220.889 21.7778ZM221.236 9.86802C222.079 10.2059 223.914 10.8621 224.879 11.2065C225.059 11.278 225.104 11.3754 225.104 11.6093V16.0665C225.104 17.9703 224.158 18.4836 221.256 20.2509C221.075 20.3613 220.985 20.4003 220.895 20.4003V9.79655C220.985 9.79655 221.082 9.81604 221.236 9.86802Z" fill="#B7B7B7"/>
<mask id="mask4_107_7" style="mask-type:luminance" maskUnits="userSpaceOnUse" x="234" y="4" width="176" height="23">
<path d="M409.889 4.66663H234.111V26.4444H409.889V4.66663Z" fill="white"/>
</mask>
<g mask="url(#mask4_107_7)">
<path d="M234.111 12.1333C234.111 9.51971 234.111 8.21292 234.62 7.21467C235.067 6.33658 235.781 5.62267 236.659 5.17526C237.657 4.66663 238.964 4.66663 241.578 4.66663H402.422C405.036 4.66663 406.343 4.66663 407.341 5.17526C408.219 5.62267 408.933 6.33658 409.38 7.21467C409.889 8.21292 409.889 9.51971 409.889 12.1333V18.9777C409.889 21.5913 409.889 22.8981 409.38 23.8964C408.933 24.7744 408.219 25.4884 407.341 25.9358C406.343 26.4444 405.036 26.4444 402.422 26.4444H241.578C238.964 26.4444 237.657 26.4444 236.659 25.9358C235.781 25.4884 235.067 24.7744 234.62 23.8964C234.111 22.8981 234.111 21.5913 234.111 18.9777V12.1333Z" fill="#3C5175"/>
<mask id="mask5_107_7" style="mask-type:luminance" maskUnits="userSpaceOnUse" x="395" y="10" width="11" height="11">
<path d="M405.611 10.1111H395.5V21H405.611V10.1111Z" fill="white"/>
</mask>
<g mask="url(#mask5_107_7)">
<path d="M400.423 15.3474C400.556 15.3474 400.66 15.3064 400.742 15.2198L402.611 13.3376C402.711 13.2374 402.757 13.128 402.757 13.0004C402.757 12.8774 402.707 12.7589 402.611 12.6677L400.742 10.7673C400.66 10.6762 400.556 10.6306 400.423 10.6306C400.177 10.6306 399.981 10.8357 399.981 11.0863C399.981 11.2094 400.027 11.3097 400.104 11.3962L401.194 12.4626C400.979 12.4307 400.761 12.4125 400.542 12.4125C398.286 12.4125 396.481 14.2172 396.481 16.4776C396.481 18.738 398.3 20.5564 400.556 20.5564C402.816 20.5564 404.63 18.738 404.63 16.4776C404.63 16.2042 404.438 16.0082 404.165 16.0082C403.901 16.0082 403.723 16.2042 403.723 16.4776C403.723 18.2367 402.315 19.6495 400.556 19.6495C398.801 19.6495 397.388 18.2367 397.388 16.4776C397.388 14.7048 398.787 13.3012 400.542 13.3012C400.838 13.3012 401.112 13.324 401.353 13.365L400.109 14.5955C400.027 14.6775 399.981 14.7778 399.981 14.9008C399.981 15.1514 400.177 15.3474 400.423 15.3474Z" fill="#E3E3E3"/>
</g>
<path d="M248 10.1666C246.392 10.1666 245.083 11.475 245.083 13.0833V14.8333H244.5C243.857 14.8333 243.333 15.3565 243.333 16V20.6666C243.333 21.31 243.857 21.8333 244.5 21.8333H251.5C252.143 21.8333 252.667 21.31 252.667 20.6666V16C252.667 15.3565 252.143 14.8333 251.5 14.8333H250.917V13.0833C250.917 11.475 249.608 10.1666 248 10.1666ZM251.5 16L251.501 20.6666H244.5V16H251.5ZM246.25 14.8333V13.0833C246.25 12.1185 247.035 11.3333 248 11.3333C248.965 11.3333 249.75 12.1185 249.75 13.0833V14.8333H246.25Z" fill="white"/>
</g>
</g>
<path d="M264.003 20L262.341 14.5455H263.222L264.401 18.7216H264.457L265.622 14.5455H266.517L267.668 18.7074H267.724L268.903 14.5455H269.784L268.122 20H267.298L266.105 15.8097H266.02L264.827 20H264.003ZM272.128 20L270.466 14.5455H271.347L272.526 18.7216H272.582L273.747 14.5455H274.642L275.793 18.7074H275.849L277.028 14.5455H277.909L276.247 20H275.423L274.23 15.8097H274.145L272.952 20H272.128ZM280.253 20L278.591 14.5455H279.472L280.651 18.7216H280.707L281.872 14.5455H282.767L283.918 18.7074H283.974L285.153 14.5455H286.034L284.372 20H283.548L282.355 15.8097H282.27L281.077 20H280.253ZM287.011 20.0568C286.835 20.0568 286.685 19.9941 286.56 19.8686C286.434 19.7431 286.371 19.5928 286.371 19.4176C286.371 19.2424 286.434 19.0921 286.56 18.9666C286.685 18.8411 286.835 18.7784 287.011 18.7784C287.186 18.7784 287.336 18.8411 287.462 18.9666C287.587 19.0921 287.65 19.2424 287.65 19.4176C287.65 19.5336 287.62 19.6402 287.561 19.7372C287.504 19.8343 287.427 19.9124 287.33 19.9716C287.236 20.0284 287.129 20.0568 287.011 20.0568ZM289.154 14.5455H289.992V20.3977C289.992 20.7339 289.934 21.0251 289.818 21.2713C289.704 21.5175 289.531 21.7081 289.299 21.843C289.07 21.978 288.78 22.0455 288.429 22.0455C288.401 22.0455 288.373 22.0455 288.344 22.0455C288.316 22.0455 288.287 22.0455 288.259 22.0455V21.2642C288.287 21.2642 288.313 21.2642 288.337 21.2642C288.361 21.2642 288.387 21.2642 288.415 21.2642C288.671 21.2642 288.858 21.1884 288.976 21.0369C289.095 20.8878 289.154 20.6747 289.154 20.3977V14.5455ZM289.566 13.6364C289.402 13.6364 289.261 13.5807 289.143 13.4695C289.027 13.3582 288.969 13.2244 288.969 13.0682C288.969 12.9119 289.027 12.7782 289.143 12.6669C289.261 12.5556 289.402 12.5 289.566 12.5C289.729 12.5 289.869 12.5556 289.985 12.6669C290.103 12.7782 290.162 12.9119 290.162 13.0682C290.162 13.2244 290.103 13.3582 289.985 13.4695C289.869 13.5807 289.729 13.6364 289.566 13.6364ZM293.743 20.1136C293.25 20.1136 292.818 19.9964 292.447 19.7621C292.077 19.5277 291.788 19.1998 291.58 18.7784C291.374 18.357 291.271 17.8646 291.271 17.3011C291.271 16.733 291.374 16.237 291.58 15.8132C291.788 15.3894 292.077 15.0604 292.447 14.826C292.818 14.5916 293.25 14.4744 293.743 14.4744C294.235 14.4744 294.666 14.5916 295.035 14.826C295.407 15.0604 295.696 15.3894 295.902 15.8132C296.11 16.237 296.214 16.733 296.214 17.3011C296.214 17.8646 296.11 18.357 295.902 18.7784C295.696 19.1998 295.407 19.5277 295.035 19.7621C294.666 19.9964 294.235 20.1136 293.743 20.1136ZM293.743 19.3608C294.117 19.3608 294.425 19.2649 294.666 19.0732C294.907 18.8814 295.086 18.6293 295.202 18.3168C295.318 18.0043 295.376 17.6657 295.376 17.3011C295.376 16.9366 295.318 16.5968 295.202 16.282C295.086 15.9671 294.907 15.7126 294.666 15.5185C294.425 15.3243 294.117 15.2273 293.743 15.2273C293.369 15.2273 293.061 15.3243 292.819 15.5185C292.578 15.7126 292.399 15.9671 292.283 16.282C292.167 16.5968 292.109 16.9366 292.109 17.3011C292.109 17.6657 292.167 18.0043 292.283 18.3168C292.399 18.6293 292.578 18.8814 292.819 19.0732C293.061 19.2649 293.369 19.3608 293.743 19.3608ZM298.332 16.7188V20H297.494V12.7273H298.332V15.3977H298.403C298.531 15.116 298.722 14.8923 298.978 14.7266C299.236 14.5585 299.579 14.4744 300.008 14.4744C300.379 14.4744 300.705 14.549 300.984 14.6982C301.264 14.8449 301.48 15.071 301.634 15.3764C301.79 15.6795 301.869 16.0653 301.869 16.5341V20H301.031V16.5909C301.031 16.1577 300.918 15.8227 300.693 15.5859C300.471 15.3468 300.162 15.2273 299.766 15.2273C299.492 15.2273 299.246 15.2853 299.028 15.4013C298.812 15.5173 298.642 15.6866 298.516 15.9091C298.393 16.1316 298.332 16.4015 298.332 16.7188ZM304.24 16.7188V20H303.402V14.5455H304.211V15.3977H304.282C304.41 15.1207 304.604 14.8982 304.865 14.7301C305.125 14.5597 305.461 14.4744 305.873 14.4744C306.243 14.4744 306.566 14.5502 306.843 14.7017C307.12 14.8509 307.335 15.0781 307.489 15.3835C307.643 15.6866 307.72 16.0701 307.72 16.5341V20H306.882V16.5909C306.882 16.1624 306.771 15.8286 306.548 15.5895C306.326 15.348 306.02 15.2273 305.632 15.2273C305.364 15.2273 305.125 15.2853 304.915 15.4013C304.706 15.5173 304.542 15.6866 304.421 15.9091C304.3 16.1316 304.24 16.4015 304.24 16.7188ZM313.115 15.767L312.362 15.9801C312.315 15.8546 312.245 15.7327 312.153 15.6143C312.063 15.4936 311.94 15.3942 311.783 15.3161C311.627 15.2379 311.427 15.1989 311.183 15.1989C310.849 15.1989 310.571 15.2758 310.349 15.4297C310.129 15.5812 310.018 15.7741 310.018 16.0085C310.018 16.2169 310.094 16.3814 310.246 16.5021C310.397 16.6229 310.634 16.7235 310.956 16.804L311.766 17.0028C312.253 17.1212 312.617 17.3023 312.856 17.5462C313.095 17.7876 313.214 18.099 313.214 18.4801C313.214 18.7926 313.125 19.072 312.945 19.3182C312.767 19.5644 312.518 19.7585 312.199 19.9006C311.879 20.0426 311.508 20.1136 311.084 20.1136C310.527 20.1136 310.067 19.9929 309.702 19.7514C309.338 19.5099 309.107 19.1572 309.01 18.6932L309.805 18.4943C309.881 18.7879 310.024 19.008 310.235 19.1548C310.448 19.3016 310.726 19.375 311.07 19.375C311.46 19.375 311.77 19.2921 312 19.1264C312.232 18.9583 312.348 18.7571 312.348 18.5227C312.348 18.3333 312.282 18.1747 312.149 18.0469C312.017 17.9167 311.813 17.8196 311.538 17.7557L310.629 17.5426C310.13 17.4242 309.763 17.2408 309.528 16.9922C309.296 16.7412 309.18 16.4276 309.18 16.0511C309.18 15.7434 309.267 15.4711 309.44 15.2344C309.615 14.9976 309.853 14.8118 310.153 14.6768C310.456 14.5419 310.8 14.4744 311.183 14.4744C311.723 14.4744 312.147 14.5928 312.455 14.8295C312.765 15.0663 312.985 15.3788 313.115 15.767ZM316.081 20.1278C315.735 20.1278 315.422 20.0627 315.14 19.9325C314.858 19.8 314.635 19.6094 314.469 19.3608C314.303 19.1098 314.22 18.8068 314.22 18.4517C314.22 18.1392 314.282 17.8859 314.405 17.6918C314.528 17.4953 314.693 17.3414 314.899 17.2301C315.105 17.1188 315.332 17.036 315.58 16.9815C315.831 16.9247 316.084 16.8797 316.337 16.8466C316.668 16.804 316.937 16.772 317.143 16.7507C317.351 16.727 317.503 16.688 317.597 16.6335C317.695 16.5791 317.743 16.4844 317.743 16.3494V16.321C317.743 15.9706 317.647 15.6984 317.455 15.5043C317.266 15.3101 316.978 15.2131 316.593 15.2131C316.192 15.2131 315.879 15.3007 315.651 15.4759C315.424 15.651 315.264 15.8381 315.172 16.0369L314.377 15.7528C314.519 15.4214 314.708 15.1634 314.945 14.9787C315.184 14.7917 315.444 14.6615 315.726 14.5881C316.01 14.5123 316.289 14.4744 316.564 14.4744C316.739 14.4744 316.941 14.4957 317.168 14.5384C317.397 14.5786 317.619 14.6626 317.832 14.7905C318.047 14.9183 318.226 15.1113 318.368 15.3693C318.51 15.6274 318.581 15.973 318.581 16.4062V20H317.743V19.2614H317.7C317.644 19.3797 317.549 19.5064 317.416 19.6413C317.284 19.7763 317.107 19.8911 316.887 19.9858C316.667 20.0805 316.398 20.1278 316.081 20.1278ZM316.209 19.375C316.54 19.375 316.82 19.3099 317.047 19.1797C317.277 19.0495 317.45 18.8814 317.566 18.6754C317.684 18.4695 317.743 18.2528 317.743 18.0256V17.2585C317.708 17.3011 317.629 17.3402 317.509 17.3757C317.39 17.4089 317.253 17.4384 317.097 17.4645C316.943 17.4882 316.793 17.5095 316.646 17.5284C316.501 17.545 316.384 17.5592 316.294 17.571C316.076 17.5994 315.873 17.6456 315.683 17.7095C315.496 17.7711 315.345 17.8646 315.229 17.9901C315.115 18.1132 315.058 18.2812 315.058 18.4943C315.058 18.7855 315.166 19.0057 315.382 19.1548C315.599 19.3016 315.875 19.375 316.209 19.375ZM320.949 12.7273V20H320.111V12.7273H320.949ZM322.484 20V14.5455H323.322V20H322.484ZM322.91 13.6364C322.747 13.6364 322.606 13.5807 322.487 13.4695C322.371 13.3582 322.313 13.2244 322.313 13.0682C322.313 12.9119 322.371 12.7782 322.487 12.6669C322.606 12.5556 322.747 12.5 322.91 12.5C323.073 12.5 323.213 12.5556 323.329 12.6669C323.447 12.7782 323.507 12.9119 323.507 13.0682C323.507 13.2244 323.447 13.3582 323.329 13.4695C323.213 13.5807 323.073 13.6364 322.91 13.6364ZM324.857 20V14.5455H325.667V15.3977H325.738C325.851 15.1065 326.035 14.8804 326.288 14.7195C326.541 14.5561 326.846 14.4744 327.201 14.4744C327.56 14.4744 327.86 14.5561 328.099 14.7195C328.341 14.8804 328.529 15.1065 328.664 15.3977H328.721C328.86 15.116 329.07 14.8923 329.349 14.7266C329.628 14.5585 329.963 14.4744 330.354 14.4744C330.842 14.4744 331.241 14.6271 331.551 14.9325C331.861 15.2356 332.016 15.7079 332.016 16.3494V20H331.178V16.3494C331.178 15.947 331.068 15.6593 330.848 15.4865C330.627 15.3137 330.368 15.2273 330.07 15.2273C329.686 15.2273 329.389 15.3433 329.179 15.5753C328.968 15.8049 328.863 16.0961 328.863 16.4489V20H328.01V16.2642C328.01 15.9541 327.91 15.7043 327.708 15.5149C327.507 15.3232 327.248 15.2273 326.931 15.2273C326.713 15.2273 326.509 15.2853 326.32 15.4013C326.133 15.5173 325.981 15.6783 325.865 15.8842C325.752 16.0878 325.695 16.3234 325.695 16.5909V20H324.857ZM333.548 20V14.5455H334.358V15.3693H334.415C334.514 15.0994 334.694 14.8804 334.955 14.7124C335.215 14.5443 335.509 14.4602 335.835 14.4602C335.897 14.4602 335.974 14.4614 336.066 14.4638C336.158 14.4661 336.228 14.4697 336.276 14.4744V15.3267C336.247 15.3196 336.182 15.3089 336.08 15.2947C335.981 15.2782 335.875 15.2699 335.764 15.2699C335.499 15.2699 335.262 15.3255 335.054 15.4368C334.848 15.5457 334.685 15.6972 334.564 15.8913C334.446 16.0831 334.386 16.3021 334.386 16.5483V20H333.548ZM339.319 20.1136C338.826 20.1136 338.394 19.9964 338.023 19.7621C337.653 19.5277 337.365 19.1998 337.156 18.7784C336.95 18.357 336.847 17.8646 336.847 17.3011C336.847 16.733 336.95 16.237 337.156 15.8132C337.365 15.3894 337.653 15.0604 338.023 14.826C338.394 14.5916 338.826 14.4744 339.319 14.4744C339.811 14.4744 340.242 14.5916 340.612 14.826C340.983 15.0604 341.272 15.3894 341.478 15.8132C341.686 16.237 341.79 16.733 341.79 17.3011C341.79 17.8646 341.686 18.357 341.478 18.7784C341.272 19.1998 340.983 19.5277 340.612 19.7621C340.242 19.9964 339.811 20.1136 339.319 20.1136ZM339.319 19.3608C339.693 19.3608 340.001 19.2649 340.242 19.0732C340.484 18.8814 340.662 18.6293 340.778 18.3168C340.894 18.0043 340.952 17.6657 340.952 17.3011C340.952 16.9366 340.894 16.5968 340.778 16.282C340.662 15.9671 340.484 15.7126 340.242 15.5185C340.001 15.3243 339.693 15.2273 339.319 15.2273C338.945 15.2273 338.637 15.3243 338.396 15.5185C338.154 15.7126 337.975 15.9671 337.859 16.282C337.743 16.5968 337.685 16.9366 337.685 17.3011C337.685 17.6657 337.743 18.0043 337.859 18.3168C337.975 18.6293 338.154 18.8814 338.396 19.0732C338.637 19.2649 338.945 19.3608 339.319 19.3608ZM343.183 20V12.7273H344.021V15.4119H344.093C344.154 15.3172 344.239 15.1965 344.348 15.0497C344.459 14.9006 344.618 14.768 344.824 14.652C345.032 14.5336 345.314 14.4744 345.669 14.4744C346.128 14.4744 346.533 14.5893 346.884 14.8189C347.234 15.0485 347.508 15.3741 347.704 15.7955C347.901 16.2169 347.999 16.714 347.999 17.2869C347.999 17.8646 347.901 18.3653 347.704 18.7891C347.508 19.2105 347.235 19.5372 346.887 19.7692C346.539 19.9988 346.138 20.1136 345.683 20.1136C345.333 20.1136 345.052 20.0556 344.842 19.9396C344.631 19.8213 344.469 19.6875 344.355 19.5384C344.242 19.3868 344.154 19.2614 344.093 19.1619H343.993V20H343.183ZM344.007 17.2727C344.007 17.6847 344.068 18.0481 344.188 18.3629C344.309 18.6754 344.485 18.9205 344.718 19.098C344.95 19.2732 345.234 19.3608 345.57 19.3608C345.92 19.3608 346.213 19.2685 346.447 19.0838C346.684 18.8968 346.861 18.6458 346.98 18.331C347.1 18.0137 347.161 17.661 347.161 17.2727C347.161 16.8892 347.102 16.5436 346.983 16.2358C346.867 15.9257 346.691 15.6806 346.454 15.5007C346.22 15.3184 345.925 15.2273 345.57 15.2273C345.229 15.2273 344.942 15.3137 344.71 15.4865C344.478 15.657 344.303 15.8961 344.185 16.2038C344.066 16.5092 344.007 16.8655 344.007 17.2727ZM351.568 20.1136C351.042 20.1136 350.589 19.9976 350.208 19.7656C349.829 19.5312 349.536 19.2045 349.33 18.7855C349.127 18.3641 349.025 17.8741 349.025 17.3153C349.025 16.7566 349.127 16.2642 349.33 15.8381C349.536 15.4096 349.823 15.0758 350.19 14.8366C350.559 14.5952 350.99 14.4744 351.482 14.4744C351.767 14.4744 352.047 14.5218 352.324 14.6165C352.601 14.7112 352.853 14.8651 353.08 15.0781C353.308 15.2888 353.489 15.5682 353.624 15.9162C353.759 16.2642 353.826 16.6927 353.826 17.2017V17.5568H349.622V16.8324H352.974C352.974 16.5246 352.912 16.25 352.789 16.0085C352.669 15.767 352.496 15.5765 352.271 15.4368C352.048 15.2971 351.785 15.2273 351.482 15.2273C351.149 15.2273 350.86 15.3101 350.616 15.4759C350.374 15.6392 350.189 15.8523 350.058 16.1151C349.928 16.3778 349.863 16.6596 349.863 16.9602V17.4432C349.863 17.8551 349.934 18.2043 350.076 18.4908C350.221 18.7749 350.421 18.9915 350.676 19.1406C350.932 19.2874 351.229 19.3608 351.568 19.3608C351.788 19.3608 351.987 19.33 352.164 19.2685C352.344 19.2045 352.499 19.1098 352.629 18.9844C352.76 18.8565 352.86 18.6979 352.931 18.5085L353.741 18.7358C353.656 19.0104 353.512 19.2519 353.311 19.4602C353.11 19.6662 352.861 19.8272 352.566 19.9432C352.27 20.0568 351.937 20.1136 351.568 20.1136ZM355.101 20V14.5455H355.911V15.3693H355.968C356.067 15.0994 356.247 14.8804 356.507 14.7124C356.768 14.5443 357.061 14.4602 357.388 14.4602C357.45 14.4602 357.526 14.4614 357.619 14.4638C357.711 14.4661 357.781 14.4697 357.828 14.4744V15.3267C357.8 15.3196 357.735 15.3089 357.633 15.2947C357.534 15.2782 357.428 15.2699 357.317 15.2699C357.052 15.2699 356.815 15.3255 356.607 15.4368C356.401 15.5457 356.237 15.6972 356.117 15.8913C355.998 16.0831 355.939 16.3021 355.939 16.5483V20H355.101ZM361.536 14.5455V15.2557H358.709V14.5455H361.536ZM359.533 13.2386H360.371V18.4375C360.371 18.6742 360.405 18.8518 360.474 18.9702C360.545 19.0862 360.635 19.1643 360.744 19.2045C360.855 19.2424 360.972 19.2614 361.095 19.2614C361.188 19.2614 361.263 19.2566 361.323 19.2472C361.382 19.2353 361.429 19.2259 361.465 19.2188L361.635 19.9716C361.578 19.9929 361.499 20.0142 361.397 20.0355C361.295 20.0592 361.166 20.071 361.01 20.071C360.773 20.071 360.541 20.0201 360.314 19.9183C360.089 19.8165 359.902 19.6615 359.753 19.4531C359.606 19.2448 359.533 18.982 359.533 18.6648V13.2386ZM363.407 20.0568C363.232 20.0568 363.082 19.9941 362.956 19.8686C362.831 19.7431 362.768 19.5928 362.768 19.4176C362.768 19.2424 362.831 19.0921 362.956 18.9666C363.082 18.8411 363.232 18.7784 363.407 18.7784C363.582 18.7784 363.733 18.8411 363.858 18.9666C363.984 19.0921 364.046 19.2424 364.046 19.4176C364.046 19.5336 364.017 19.6402 363.958 19.7372C363.901 19.8343 363.824 19.9124 363.727 19.9716C363.632 20.0284 363.526 20.0568 363.407 20.0568ZM367.766 20.1136C367.255 20.1136 366.814 19.9929 366.445 19.7514C366.076 19.5099 365.792 19.1773 365.593 18.7536C365.394 18.3298 365.295 17.8456 365.295 17.3011C365.295 16.7472 365.396 16.2583 365.6 15.8345C365.806 15.4084 366.092 15.0758 366.459 14.8366C366.829 14.5952 367.26 14.4744 367.752 14.4744C368.135 14.4744 368.481 14.5455 368.789 14.6875C369.097 14.8295 369.349 15.0284 369.545 15.2841C369.742 15.5398 369.864 15.8381 369.911 16.179H369.073C369.009 15.9304 368.867 15.7102 368.647 15.5185C368.429 15.3243 368.135 15.2273 367.766 15.2273C367.439 15.2273 367.153 15.3125 366.907 15.483C366.663 15.651 366.472 15.889 366.335 16.1967C366.2 16.5021 366.133 16.8608 366.133 17.2727C366.133 17.6941 366.199 18.0611 366.331 18.3736C366.466 18.6861 366.656 18.9287 366.9 19.1016C367.146 19.2744 367.435 19.3608 367.766 19.3608C367.984 19.3608 368.182 19.3229 368.359 19.2472C368.537 19.1714 368.687 19.0625 368.81 18.9205C368.933 18.7784 369.021 18.608 369.073 18.4091H369.911C369.864 18.7311 369.747 19.0211 369.559 19.2791C369.375 19.5348 369.13 19.7384 368.824 19.8899C368.521 20.0391 368.169 20.1136 367.766 20.1136ZM373.352 20.1136C372.86 20.1136 372.428 19.9964 372.056 19.7621C371.687 19.5277 371.398 19.1998 371.189 18.7784C370.983 18.357 370.881 17.8646 370.881 17.3011C370.881 16.733 370.983 16.237 371.189 15.8132C371.398 15.3894 371.687 15.0604 372.056 14.826C372.428 14.5916 372.86 14.4744 373.352 14.4744C373.845 14.4744 374.275 14.5916 374.645 14.826C375.016 15.0604 375.305 15.3894 375.511 15.8132C375.72 16.237 375.824 16.733 375.824 17.3011C375.824 17.8646 375.72 18.357 375.511 18.7784C375.305 19.1998 375.016 19.5277 374.645 19.7621C374.275 19.9964 373.845 20.1136 373.352 20.1136ZM373.352 19.3608C373.726 19.3608 374.034 19.2649 374.275 19.0732C374.517 18.8814 374.696 18.6293 374.812 18.3168C374.928 18.0043 374.986 17.6657 374.986 17.3011C374.986 16.9366 374.928 16.5968 374.812 16.282C374.696 15.9671 374.517 15.7126 374.275 15.5185C374.034 15.3243 373.726 15.2273 373.352 15.2273C372.978 15.2273 372.67 15.3243 372.429 15.5185C372.187 15.7126 372.009 15.9671 371.893 16.282C371.777 16.5968 371.719 16.9366 371.719 17.3011C371.719 17.6657 371.777 18.0043 371.893 18.3168C372.009 18.6293 372.187 18.8814 372.429 19.0732C372.67 19.2649 372.978 19.3608 373.352 19.3608ZM377.103 20V14.5455H377.913V15.3977H377.984C378.097 15.1065 378.281 14.8804 378.534 14.7195C378.787 14.5561 379.092 14.4744 379.447 14.4744C379.807 14.4744 380.106 14.5561 380.345 14.7195C380.587 14.8804 380.775 15.1065 380.91 15.3977H380.967C381.106 15.116 381.316 14.8923 381.595 14.7266C381.875 14.5585 382.21 14.4744 382.6 14.4744C383.088 14.4744 383.487 14.6271 383.797 14.9325C384.107 15.2356 384.262 15.7079 384.262 16.3494V20H383.424V16.3494C383.424 15.947 383.314 15.6593 383.094 15.4865C382.874 15.3137 382.614 15.2273 382.316 15.2273C381.933 15.2273 381.635 15.3433 381.425 15.5753C381.214 15.8049 381.109 16.0961 381.109 16.4489V20H380.256V16.2642C380.256 15.9541 380.156 15.7043 379.955 15.5149C379.753 15.3232 379.494 15.2273 379.177 15.2273C378.959 15.2273 378.755 15.2853 378.566 15.4013C378.379 15.5173 378.228 15.6783 378.112 15.8842C377.998 16.0878 377.941 16.3234 377.941 16.5909V20H377.103Z" fill="white"/>
</g>
<defs>
<clipPath id="clip0_107_7">
<rect width="644" height="32" fill="white"/>
</clipPath>
</defs>
</svg>
